<svg width="348" height="354" viewBox="0 0 348 354" fill="none" xmlns="http://www.w3.org/2000/svg">
<g>
<rect width="348" height="354" fill="white"/>
<path d="M146.86 63.4139C159.13 22.7216 212.677 13.6581 237.654 48.0458C254.337 71.0126 249.242 103.154 226.275 119.837C186.443 148.769 132.648 110.549 146.86 63.4139Z" fill="#2AC49A"/>
<circle cx="17.3564" cy="91.0181" r="88.5" transform="rotate(-16.1351 17.3564 91.0181)" fill="#F7E16E"/>
<rect x="17.9451" y="123.639" width="111" height="395" rx="55.5" transform="rotate(-16.1351 17.9451 123.639)" fill="#1D6164"/>
<path d="M14.5551 319.577L18.4064 323.43C46.1126 351.15 90.5429 352.707 120.122 326.995L169.916 283.712C209.103 256.242 189.251 194.641 141.399 195.221L64.8239 196.149C0.83438 196.924 -30.685 274.316 14.5551 319.577Z" fill="#F78E67"/>
<ellipse cx="257.428" cy="287.543" rx="79.5" ry="155" transform="rotate(-16.1351 257.428 287.543)" fill="#78D3DE"/>
</g>
<defs>
</defs>
</svg>
