<svg width="85" height="233" viewBox="0 0 85 233" fill="none" xmlns="http://www.w3.org/2000/svg">
<path d="M29.1064 25.1768V29.6958C29.1064 31.1586 28.4813 32.5407 27.334 33.4481C23.7997 36.2433 16.7706 41.4994 13.2807 44.0981C11.9792 45.0673 11.2158 46.5767 11.2158 48.1995C11.2158 57.8998 11.2158 93.0024 11.2158 117.224C11.2158 122.883 15.8029 127.458 21.4614 127.458H64.8652C70.5236 127.458 75.1107 122.871 75.1107 117.212V48.1694C75.1107 46.571 74.3647 45.0643 73.0935 44.0953L59.2373 33.5331C57.9662 32.5642 57.2201 31.0574 57.2201 29.4591V25.1768" stroke="black" stroke-width="4.81168" stroke-linecap="round"/>
<rect x="26.4912" y="3.09106" width="33.298" height="12.3636" fill="#78D3DE" stroke="black" stroke-width="4.81168" stroke-linecap="round" stroke-linejoin="round"/>
<circle cx="42" cy="170.091" r="17.0217" fill="#37D7AB" stroke="#37D7AB" stroke-width="3.0475"/>
<path d="M51.6437 170.833C51.6437 175.749 47.3261 179.735 42.0001 179.735C36.674 179.735 32.3564 175.749 32.3564 170.833" stroke="white" stroke-width="3.0475" stroke-linecap="square"/>
<rect x="1" y="207" width="84" height="6" rx="1.09091" fill="black"/>
<rect x="0.54541" y="219.182" width="84" height="3.27273" rx="1.09091" fill="black"/>
<rect x="0.54541" y="229" width="84" height="3.27273" rx="1.09091" fill="black"/>
<circle cx="42" cy="170.091" r="17.0217" fill="#FC9A06" stroke="#FC9A06" stroke-width="3.0475"/>
<path d="M41.9998 175.284L42.0089 173.76H41.9998V175.284ZM50.1681 176.807L51.6919 176.799L51.6753 173.752L50.1515 173.76L50.1681 176.807ZM45.9004 175.307L45.8913 176.83L45.9 176.831L45.9087 176.83L45.9004 175.307ZM33.8398 173.76H32.3161V176.807H33.8398V173.76ZM41.9998 173.76H37.7867V176.807H41.9998V173.76ZM50.1515 173.76L45.8921 173.783L45.9087 176.83L50.1681 176.807L50.1515 173.76ZM45.9094 173.783L42.0089 173.76L41.9908 176.807L45.8913 176.83L45.9094 173.783ZM37.7867 173.76H36.0481V176.807H37.7867V173.76ZM36.0481 173.76H33.8398V176.807H36.0481V173.76Z" fill="white"/>
<circle cx="42" cy="170.091" r="17.0217" fill="#FC9A06" stroke="#FC9A06" stroke-width="3.0475"/>
<path d="M41.9998 175.284L42.0089 173.76H41.9998V175.284ZM50.1681 176.807L51.6919 176.799L51.6753 173.752L50.1515 173.76L50.1681 176.807ZM45.9004 175.307L45.8913 176.83L45.9 176.831L45.9087 176.83L45.9004 175.307ZM33.8398 173.76H32.3161V176.807H33.8398V173.76ZM41.9998 173.76H37.7867V176.807H41.9998V173.76ZM50.1515 173.76L45.8921 173.783L45.9087 176.83L50.1681 176.807L50.1515 173.76ZM45.9094 173.783L42.0089 173.76L41.9908 176.807L45.8913 176.83L45.9094 173.783ZM37.7867 173.76H36.0481V176.807H37.7867V173.76ZM36.0481 173.76H33.8398V176.807H36.0481V173.76Z" fill="white"/>
</svg>
