<svg width="385" height="419" viewBox="0 0 385 419" fill="none" xmlns="http://www.w3.org/2000/svg">
<path d="M297.229 -60.5863C309.498 -101.279 363.045 -110.342 388.023 -75.9544C404.705 -52.9876 399.61 -20.8457 376.643 -4.16357C336.811 24.7691 283.016 -13.4511 297.229 -60.5863Z" fill="#2AC49A"/>
<circle cx="167.725" cy="-32.9821" r="88.5" transform="rotate(-16.1351 167.725 -32.9821)" fill="#F7E16E"/>
<rect x="168.313" y="-0.360596" width="111" height="395" rx="55.5" transform="rotate(-16.1351 168.313 -0.360596)" fill="#1D6164"/>
<path d="M164.924 195.577L168.775 199.43C196.482 227.149 240.912 228.707 270.491 202.995L320.285 159.712C359.471 132.242 339.62 70.6412 291.768 71.2209L215.193 72.1487C151.203 72.924 119.684 150.316 164.924 195.577Z" fill="#F78E67"/>
<ellipse cx="407.797" cy="163.543" rx="79.5" ry="155" transform="rotate(-16.1351 407.797 163.543)" fill="#78D3DE"/>
</svg>
