<svg width="84" height="240" viewBox="0 0 84 240" fill="none" xmlns="http://www.w3.org/2000/svg">
<rect y="214.456" width="84" height="6" rx="1.09091" fill="black"/>
<rect y="226.638" width="84" height="3.27273" rx="1.09091" fill="black"/>
<rect y="236.456" width="84" height="3.27273" rx="1.09091" fill="black"/>
<circle cx="43.5" cy="177.502" r="16.98" fill="#78D3DE" stroke="#78D3DE" stroke-width="3.04003"/>
<circle cx="43.5175" cy="188.272" r="1.52047" fill="white"/>
<path d="M43.5 184.439V178.658C46.1979 178.465 51.5938 178.658 51.5938 173.455C51.5938 167.096 45.8125 168.252 41.7656 168.252" stroke="white" stroke-width="3.04094"/>
<path d="M32.015 135.985V90.6492H53.7899V135.985H32.015Z" stroke="black" stroke-width="4.03" stroke-linecap="round" stroke-linejoin="round"/>
<path d="M36.5028 91.107V82.7955H50.424V91.107H36.5028Z" fill="#2AC49A" stroke="black" stroke-width="4.03" stroke-linecap="round" stroke-linejoin="round"/>
<line x1="43.6925" y1="82.1314" x2="43.6925" y2="2.015" stroke="black" stroke-width="4.03" stroke-linecap="round" stroke-linejoin="round"/>
<line x1="39.5389" y1="31.6436" x2="47.3884" y2="31.6436" stroke="black" stroke-width="4.03" stroke-linecap="round" stroke-linejoin="round"/>
<line x1="36.8988" y1="26.0338" x2="50.028" y2="26.0338" stroke="black" stroke-width="4.03" stroke-linecap="round" stroke-linejoin="round"/>
<line x1="36.8988" y1="14.8142" x2="50.028" y2="14.8142" stroke="black" stroke-width="4.03" stroke-linecap="round" stroke-linejoin="round"/>
<line x1="38.2191" y1="9.20448" x2="48.7085" y2="9.20448" stroke="black" stroke-width="4.03" stroke-linecap="round" stroke-linejoin="round"/>
<line x1="40.8588" y1="3.59474" x2="46.0684" y2="3.59474" stroke="black" stroke-width="4.03" stroke-linecap="round" stroke-linejoin="round"/>
<line x1="34.2591" y1="20.424" x2="52.6682" y2="20.424" stroke="black" stroke-width="4.03" stroke-linecap="round" stroke-linejoin="round"/>
<path d="M49.9662 107.61C49.9662 103.2 53.5412 99.6247 57.9512 99.6247H61.5122C65.9221 99.6247 69.4972 103.2 69.4972 107.61V135.985H49.9662V107.61Z" fill="white" stroke="black" stroke-width="4.03" stroke-linecap="round" stroke-linejoin="round"/>
<line x1="54.9017" y1="116.086" x2="59.6955" y2="111.977" stroke="black" stroke-width="4.03" stroke-linecap="round" stroke-linejoin="round"/>
<line x1="54.9017" y1="122.817" x2="59.6955" y2="118.708" stroke="black" stroke-width="4.03" stroke-linecap="round" stroke-linejoin="round"/>
</svg>
