<svg width="84" height="234" viewBox="0 0 84 234" fill="none" xmlns="http://www.w3.org/2000/svg">
<circle cx="41.4546" cy="171.091" r="18.5455" fill="#37D7AB"/>
<path d="M51.0983 171.833C51.0983 176.749 46.7807 180.735 41.4547 180.735C36.1286 180.735 31.811 176.749 31.811 171.833" stroke="white" stroke-width="3.0475" stroke-linecap="square"/>
<circle cx="35.6536" cy="165.661" r="1.5242" fill="white"/>
<circle cx="47.2444" cy="165.661" r="1.5242" fill="white"/>
<rect y="208" width="84" height="6" rx="1.09091" fill="black"/>
<rect y="220.182" width="84" height="3.27273" rx="1.09091" fill="black"/>
<rect y="230" width="84" height="3.27273" rx="1.09091" fill="black"/>
<circle cx="41.3765" cy="171.091" r="18.5455" fill="#F15E27"/>
<path d="M33.2166 177.767C33.2166 173.67 36.87 170.349 41.3766 170.349C45.8833 170.349 49.5366 173.67 49.5366 177.767" stroke="white" stroke-width="3.0475" stroke-linecap="square"/>
<circle cx="35.5813" cy="165.66" r="1.5242" fill="white"/>
<circle cx="47.1722" cy="165.66" r="1.5242" fill="white"/>
<rect x="17.1416" y="102.179" width="48.6096" height="24.3048" fill="#F7E16E"/>
<path d="M31.3194 37.3663V41.8211C31.3194 42.8593 30.9042 43.8523 30.1305 44.5446C27.3326 47.0481 21.2859 52.1283 18.5441 54.4231C17.6532 55.1687 17.1416 56.2391 17.1416 57.4008C17.1416 65.455 17.1416 98.6679 17.1416 120.689C17.1416 125.013 20.6467 128.509 24.9705 128.509H59.9477C64.2715 128.509 67.7766 125.004 67.7766 120.68V57.3953C67.7766 56.2526 67.2773 55.1669 66.4097 54.4233L54.9658 44.6142C54.0982 43.8705 53.5988 42.7849 53.5988 41.6421V37.3663" stroke="black" stroke-width="4.02545" stroke-linecap="round"/>
<path d="M43.4718 94.0775V4.95984H29.2939H59.1054C62.1439 4.95984 65.1406 5.66728 67.8583 7.02613L71.8274 9.01064" stroke="black" stroke-width="4.02545" stroke-linecap="round" stroke-linejoin="round"/>
<path d="M71.8273 19.1378C68.4516 23.1886 63.7257 31.2902 71.8273 31.2902C79.9289 31.2902 75.203 23.1886 71.8273 19.1378Z" fill="#F7E16E" stroke="black" stroke-width="4.02545"/>
</svg>
