<svg width="356" height="348" viewBox="0 0 356 348" fill="none" xmlns="http://www.w3.org/2000/svg">
<path d="M121.229 128.414C133.499 87.7217 187.045 78.6582 212.023 113.046C228.705 136.013 223.611 168.155 200.644 184.837C160.812 213.769 107.017 175.549 121.229 128.414Z" fill="#2AC49A"/>
<circle cx="-8.27497" cy="156.018" r="88.5" transform="rotate(-16.1351 -8.27497 156.018)" fill="#F7E16E"/>
<rect x="-7.68604" y="188.64" width="111" height="395" rx="55.5" transform="rotate(-16.1351 -7.68604 188.64)" fill="#1D6164"/>
<path d="M-11.076 384.577L-7.22475 388.43C20.4815 416.15 64.9118 417.707 94.4907 391.995L144.285 348.712C183.471 321.242 163.62 259.641 115.768 260.221L39.1928 261.149C-24.7967 261.924 -56.3161 339.316 -11.076 384.577Z" fill="#F78E67"/>
<ellipse cx="231.796" cy="352.543" rx="79.5" ry="155" transform="rotate(-16.1351 231.796 352.543)" fill="#78D3DE"/>
</svg>
