<svg width="613" height="256" viewBox="0 0 613 256" fill="none" xmlns="http://www.w3.org/2000/svg">
<path d="M31.333 98.6249V130.708H56.5413V82.5833C51.958 83.3471 44.8694 84.2534 40.4997 87.1666C33.6247 91.7499 33.6247 95.5694 31.333 98.6249Z" fill="#F78E67" stroke="black" stroke-width="4.58333" stroke-linecap="round" stroke-linejoin="round"/>
<path d="M22.1663 181.125C23.432 181.125 24.458 180.099 24.458 178.833V142.167C24.458 138.37 27.536 135.292 31.333 135.292H56.5413C60.3383 135.292 63.4163 138.37 63.4163 142.167V178.833C63.4163 180.099 64.4424 181.125 65.708 181.125C66.9737 181.125 67.9997 182.151 67.9997 183.417V233.833C67.9997 235.099 66.9737 236.125 65.708 236.125H22.1663C20.9007 236.125 19.8747 235.099 19.8747 233.833V183.417C19.8747 182.151 20.9007 181.125 22.1663 181.125Z" fill="white" stroke="black" stroke-width="4.58333" stroke-linecap="round" stroke-linejoin="round"/>
<line x1="33.6247" y1="144.458" x2="33.6247" y2="162.792" stroke="black" stroke-width="4.58333" stroke-linecap="round" stroke-linejoin="round"/>
<path d="M38.208 100.917C39.7358 100.153 43.2497 98.1667 45.083 96.3333C46.9163 94.5 48.9025 92.5139 49.6663 91.75" stroke="black" stroke-width="4.58333" stroke-linecap="round" stroke-linejoin="round"/>
<rect x="105" y="83" width="95" height="8" rx="1.24132" fill="black"/>
<rect x="104.857" y="98.5851" width="95.5816" height="3.72396" rx="1.24132" fill="black"/>
<rect x="104.857" y="109.757" width="95.5816" height="3.72396" rx="1.24132" fill="black"/>
<rect x="104.857" y="183.512" width="95.5816" height="3.72396" rx="1.24132" fill="#C8C8C8"/>
<path d="M135.628 135.851H276.439C282.726 135.851 287.823 140.947 287.823 147.234C287.823 153.521 282.726 158.618 276.439 158.618H135.628V135.851Z" fill="white" stroke="#37D7AB" stroke-width="1.501"/>
<rect x="134.878" y="136.449" width="38" height="21.5713" fill="#1D6164"/>
<rect x="172.887" y="136.449" width="38" height="21.5713" fill="#78D3DE"/>
<rect x="235" y="136.451" width="12.5" height="21.57" fill="#2AC49A"/>
<rect x="210.118" y="136.449" width="25.34" height="21.5713" fill="#F78E67"/>
<circle cx="116.865" cy="147.109" r="12.008" fill="#37D7AB"/>
<path d="M123.109 147.589C123.109 150.772 120.314 153.353 116.865 153.353C113.417 153.353 110.621 150.772 110.621 147.589" stroke="white" stroke-width="1.97322" stroke-linecap="square"/>
<circle cx="113.109" cy="143.593" r="0.986907" fill="white"/>
<circle cx="120.614" cy="143.593" r="0.986907" fill="white"/>
<rect width="613" height="45" fill="#36363A"/>
<rect x="11" y="10" width="534" height="24" rx="12" fill="#202124"/>
<circle cx="597" cy="15" r="2" fill="#F1F3F4"/>
<circle cx="597" cy="22" r="2" fill="#F1F3F4"/>
<circle cx="597" cy="28" r="2" fill="#F1F3F4"/>
<g filter="url(#filter0_d)">
<rect x="376" y="40" width="202" height="208" fill="white"/>
</g>
<circle cx="400.008" cy="63.008" r="12.008" fill="#37D7AB"/>
<path d="M406.252 63.4883C406.252 66.6716 403.456 69.2521 400.008 69.2521C396.559 69.2521 393.764 66.6716 393.764 63.4883" stroke="white" stroke-width="1.97322" stroke-linecap="square"/>
<circle cx="396.252" cy="59.4919" r="0.986907" fill="white"/>
<circle cx="403.756" cy="59.4919" r="0.986907" fill="white"/>
<rect x="421" y="55" width="96" height="6" rx="1.24132" fill="black"/>
<rect x="421" y="66" width="96" height="3" rx="1.24132" fill="black"/>
<path d="M388 129H560C562.761 129 565 131.239 565 134C565 136.761 562.761 139 560 139H388V129Z" fill="#78D3DE"/>
<path d="M389 168H560C562.209 168 564 169.791 564 172C564 174.209 562.209 176 560 176H389V168Z" stroke="#F78E67" stroke-width="2"/>
<path d="M388 167H506V177H388V167Z" fill="#F78E67"/>
<path d="M389 92H560C562.209 92 564 93.7909 564 96C564 98.2091 562.209 100 560 100H389V92Z" fill="#1D6164" stroke="#1D6164" stroke-width="2"/>
<path d="M388 91H447V101H388V91Z" fill="#1D6164"/>
<path d="M388.491 205H447.491V215H388.491V205Z" fill="#37D7AB"/>
<path d="M389 206H560C562.209 206 564 207.791 564 210C564 212.209 562.209 214 560 214H389V206Z" stroke="#37D7AB" stroke-width="2"/>
<rect x="399" y="113" width="77" height="4" rx="1.24132" fill="#C8C8C8"/>
<rect x="399" y="151" width="77" height="4" rx="1.24132" fill="#C8C8C8"/>
<rect x="399" y="227" width="77" height="4" rx="1.24132" fill="#C8C8C8"/>
<rect x="399" y="189" width="77" height="4" rx="1.24132" fill="#C8C8C8"/>
<mask id="path-41-inside-1" fill="white">
<path d="M577.147 29.8411C577.599 30.2928 577.602 31.0304 577.107 31.4338C576.255 32.1278 575.305 32.6956 574.285 33.1177C573.266 33.5399 572.193 33.8103 571.099 33.9222C570.464 33.9872 569.945 33.4632 569.945 32.8245L569.945 25.4311C569.945 24.4007 571.191 23.8846 571.919 24.6133L577.147 29.8411Z"/>
</mask>
<path d="M577.147 29.8411C577.599 30.2928 577.602 31.0304 577.107 31.4338C576.255 32.1278 575.305 32.6956 574.285 33.1177C573.266 33.5399 572.193 33.8103 571.099 33.9222C570.464 33.9872 569.945 33.4632 569.945 32.8245L569.945 25.4311C569.945 24.4007 571.191 23.8846 571.919 24.6133L577.147 29.8411Z" fill="#85ECD0" stroke="#2AC49A" stroke-width="1.73494" mask="url(#path-41-inside-1)"/>
<mask id="path-42-inside-2" fill="white">
<path d="M577.147 14.1399C577.599 13.6882 577.602 12.9506 577.107 12.5473C576.255 11.8533 575.305 11.2855 574.285 10.8634C573.266 10.4412 572.193 10.1708 571.099 10.0589C570.464 9.99389 569.945 10.5178 569.945 11.1566L569.945 18.5499C569.945 19.5804 571.191 20.0964 571.919 19.3678L577.147 14.1399Z"/>
</mask>
<path d="M577.147 14.1399C577.599 13.6882 577.602 12.9506 577.107 12.5473C576.255 11.8533 575.305 11.2855 574.285 10.8634C573.266 10.4412 572.193 10.1708 571.099 10.0589C570.464 9.99389 569.945 10.5178 569.945 11.1566L569.945 18.5499C569.945 19.5804 571.191 20.0964 571.919 19.3678L577.147 14.1399Z" fill="#85ECD0" stroke="#2AC49A" stroke-width="1.73494" mask="url(#path-42-inside-2)"/>
<mask id="path-43-inside-3" fill="white">
<path d="M580.434 21.7974C581.073 21.7974 581.597 21.2782 581.532 20.6427C581.42 19.5494 581.15 18.476 580.727 17.4569C580.305 16.4377 579.738 15.4875 579.044 14.6353C578.64 14.1399 577.903 14.1433 577.451 14.595L572.223 19.8229C571.494 20.5515 572.01 21.7974 573.041 21.7974H580.434Z"/>
</mask>
<path d="M580.434 21.7974C581.073 21.7974 581.597 21.2782 581.532 20.6427C581.42 19.5494 581.15 18.476 580.727 17.4569C580.305 16.4377 579.738 15.4875 579.044 14.6353C578.64 14.1399 577.903 14.1433 577.451 14.595L572.223 19.8229C571.494 20.5515 572.01 21.7974 573.041 21.7974H580.434Z" fill="#85ECD0" stroke="#2AC49A" stroke-width="1.73494" mask="url(#path-43-inside-3)"/>
<mask id="path-44-inside-4" fill="white">
<path d="M580.434 22.1837C581.073 22.1837 581.597 22.7029 581.532 23.3384C581.42 24.4317 581.15 25.5051 580.727 26.5242C580.305 27.5434 579.738 28.4936 579.044 29.3458C578.64 29.8411 577.903 29.8378 577.451 29.3861L572.223 24.1582C571.494 23.4296 572.01 22.1837 573.041 22.1837H580.434Z"/>
</mask>
<path d="M580.434 22.1837C581.073 22.1837 581.597 22.7029 581.532 23.3384C581.42 24.4317 581.15 25.5051 580.727 26.5242C580.305 27.5434 579.738 28.4936 579.044 29.3458C578.64 29.8411 577.903 29.8378 577.451 29.3861L572.223 24.1582C571.494 23.4296 572.01 22.1837 573.041 22.1837H580.434Z" fill="#85ECD0" stroke="#2AC49A" stroke-width="1.73494" mask="url(#path-44-inside-4)"/>
<path d="M568 32.5542C562.171 32.5542 557.445 27.829 557.445 22C557.445 16.1711 562.171 11.4458 568 11.4458" stroke="#2AC49A" stroke-width="2.89157" stroke-linecap="round"/>
<path d="M569.446 14.4802V11.4458L565.181 12.6747C565.566 12.8916 567.61 12.8482 567.783 13.5422C567.858 13.8425 567.9 14.1447 567.921 14.4123C567.955 14.837 568.295 15.2048 568.721 15.2048C569.121 15.2048 569.446 14.8804 569.446 14.4802Z" fill="#2AC49A"/>
<path d="M569.446 29.6761V32.6989L565.108 31.4699C565.5 31.2531 567.578 31.2964 567.755 30.6025C567.83 30.3073 567.872 30.0104 567.894 29.7463C567.93 29.3144 568.276 28.9398 568.709 28.9398C569.116 28.9398 569.446 29.2695 569.446 29.6761Z" fill="#2AC49A"/>
<defs>
<filter id="filter0_d" x="372" y="40" width="210" height="216" filterUnits="userSpaceOnUse" color-interpolation-filters="sRGB">
<feFlood flood-opacity="0" result="BackgroundImageFix"/>
<feColorMatrix in="SourceAlpha" type="matrix" values="0 0 0 0 0 0 0 0 0 0 0 0 0 0 0 0 0 0 127 0"/>
<feOffset dy="4"/>
<feGaussianBlur stdDeviation="2"/>
<feColorMatrix type="matrix" values="0 0 0 0 0 0 0 0 0 0 0 0 0 0 0 0 0 0 0.25 0"/>
<feBlend mode="normal" in2="BackgroundImageFix" result="effect1_dropShadow"/>
<feBlend mode="normal" in="SourceGraphic" in2="effect1_dropShadow" result="shape"/>
</filter>
</defs>
</svg>
