<svg width="306" height="372" viewBox="0 0 306 372" fill="none" xmlns="http://www.w3.org/2000/svg">
<g clip-path="url(#clip0)">
<rect width="306" height="372" fill="white"/>
<path d="M216.229 -56.5861C228.498 -97.2784 282.045 -106.342 307.023 -71.9542C323.705 -48.9874 318.611 -16.8455 295.644 -0.163388C255.811 28.7692 202.017 -9.45087 216.229 -56.5861Z" fill="#2AC49A"/>
<circle cx="86.7252" cy="-28.9819" r="88.5" transform="rotate(-16.1351 86.7252 -28.9819)" fill="#F7E16E"/>
<rect x="87.314" y="3.6395" width="111" height="395" rx="55.5" transform="rotate(-16.1351 87.314 3.6395)" fill="#1D6164"/>
<path d="M83.9239 199.577L87.7751 203.43C115.481 231.15 159.912 232.707 189.491 206.995L239.285 163.712C278.471 136.242 258.62 74.6413 210.768 75.221L134.193 76.1488C70.2032 76.9241 38.6838 154.316 83.9239 199.577Z" fill="#F78E67"/>
<ellipse cx="326.797" cy="167.543" rx="79.5" ry="155" transform="rotate(-16.1351 326.797 167.543)" fill="#78D3DE"/>
</g>
<defs>
<clipPath id="clip0">
<rect width="306" height="372" fill="white"/>
</clipPath>
</defs>
</svg>
