<svg width="115" height="231" viewBox="0 0 115 231" fill="none" xmlns="http://www.w3.org/2000/svg">
<rect x="16" y="205.455" width="84" height="6" rx="1.09091" fill="black"/>
<rect x="16" y="217.636" width="84" height="3.27273" rx="1.09091" fill="black"/>
<rect x="16" y="227.455" width="84" height="3.27273" rx="1.09091" fill="black"/>
<circle cx="57.4997" cy="57.5" r="43.0267" stroke="black" stroke-width="4.03"/>
<path d="M39.5 85L54.5 86.5L88.5 51L87 38.5L39.5 85Z" fill="#2AC49A"/>
<line x1="40.2782" y1="84.3589" x2="86.2755" y2="39.2635" stroke="black" stroke-width="4.03" stroke-linecap="round"/>
<line x1="54.625" y1="86.2754" x2="89.1504" y2="51.75" stroke="black" stroke-width="4.03" stroke-linecap="round"/>
<path d="M109.25 108.292L110.961 109.355C111.348 108.734 111.367 107.952 111.011 107.313C110.656 106.673 109.982 106.277 109.25 106.277V108.292ZM5.75 108.292V106.277C5.03276 106.277 4.36959 106.658 4.00868 107.278C3.64778 107.898 3.64355 108.662 3.99758 109.286L5.75 108.292ZM101.164 121.3L99.4523 120.236L101.164 121.3ZM109.25 106.277H5.75V110.307H109.25V106.277ZM3.99758 109.286L11.186 121.951L14.6908 119.962L7.50242 107.297L3.99758 109.286ZM21.6352 128.036H92.6708V124.006H21.6352V128.036ZM102.875 122.364L110.961 109.355L107.539 107.228L99.4523 120.236L102.875 122.364ZM92.6708 128.036C96.8238 128.036 100.682 125.891 102.875 122.364L99.4523 120.236C97.9952 122.58 95.4308 124.006 92.6708 124.006V128.036ZM11.186 121.951C13.3204 125.712 17.311 128.036 21.6352 128.036V124.006C18.7614 124.006 16.1093 122.462 14.6908 119.962L11.186 121.951Z" fill="black"/>
<path fill-rule="evenodd" clip-rule="evenodd" d="M93.0151 97.4722C104.031 87.678 110.97 73.3994 110.97 57.5C110.97 27.9693 87.0307 4.03 57.5 4.03C27.9693 4.03 4.03 27.9693 4.03 57.5C4.03 73.0289 10.6499 87.0117 21.2215 96.7803L18.4717 99.7265C7.11232 89.2223 0 74.1917 0 57.5C0 25.7436 25.7436 0 57.5 0C89.2564 0 115 25.7436 115 57.5C115 74.5536 107.576 89.8733 95.7834 100.403L93.0151 97.4722Z" fill="black"/>
<circle cx="94.5" cy="98.5" r="2.5" fill="black"/>
<circle cx="20.5" cy="98.5" r="2.5" fill="black"/>
<circle cx="59.5" cy="168.5" r="16.98" fill="#78D3DE" stroke="#78D3DE" stroke-width="3.04003"/>
<path d="M67.7031 175.2H69.2231V172.16H67.7031V175.2ZM65.3906 172.16H63.8706V175.2H65.3906V172.16ZM67.7031 172.16H65.3906V175.2H67.7031V172.16Z" fill="white"/>
<path d="M53.8281 175.2H55.3481V172.16H53.8281V175.2ZM51.5156 172.16H49.9956V175.2H51.5156V172.16ZM53.8281 172.16H51.5156V175.2H53.8281V172.16Z" fill="white"/>
<path d="M60.7656 175.2H62.2856V172.16H60.7656V175.2ZM58.4531 172.16H56.9331V175.2H58.4531V172.16ZM60.7656 172.16H58.4531V175.2H60.7656V172.16Z" fill="white"/>
</svg>
